<svg width="60" height="60" viewBox="0 0 60 60" fill="none" xmlns="http://www.w3.org/2000/svg">
<g clip-path="url(#clip0_21_75)">
<path d="M59.1211 49.4413C58.888 49.4413 58.6644 49.5339 58.4996 49.6987C58.3348 49.8636 58.2422 50.0871 58.2422 50.3202V56.1928C58.2422 56.2744 58.1759 56.3408 58.0942 56.3408H54.7546V43.4998C54.7546 43.0144 54.3612 42.6209 53.8757 42.6209C53.3902 42.6209 52.9968 43.0144 52.9968 43.4998V56.3409H46.5433L48.2899 54.4194C48.5597 54.1226 48.6869 53.7011 48.6303 53.2917C48.629 53.283 48.6276 53.2742 48.6262 53.2655L46.6627 41.6644L47.024 41.1205L47.1181 41.1873C47.2799 41.3024 47.4648 41.3811 47.66 41.4178C47.8551 41.4546 48.0559 41.4487 48.2486 41.4004C48.4413 41.3523 48.6213 41.263 48.7761 41.1387C48.931 41.0143 49.0571 40.8579 49.1458 40.6802L51.1437 36.6756L55.7075 38.4432C55.8877 38.5214 58.2417 39.6009 58.2417 42.4094V46.2184C58.2444 46.4498 58.3381 46.6708 58.5027 46.8334C58.6672 46.9961 58.8893 47.0873 59.1206 47.0874C59.352 47.0874 59.574 46.9962 59.7386 46.8335C59.9032 46.6709 59.997 46.4499 59.9996 46.2185V42.4095C59.9996 38.3536 56.5209 36.877 56.3729 36.816C56.3674 36.8137 56.3618 36.8115 56.3562 36.8093L48.5847 33.7995V32.1987C49.7978 31.2228 50.6497 29.8162 50.9056 28.2127C51.5106 28.1368 52.0719 27.8946 52.5377 27.4939C52.8679 27.21 53.1327 26.8581 53.3142 26.4623C53.4956 26.0665 53.5894 25.6362 53.589 25.2008C53.5894 24.503 53.3482 23.8265 52.9065 23.2863V20.9146C52.9065 16.2733 49.1305 12.4974 44.4894 12.4974C42.4057 12.4974 40.4979 13.2601 39.0264 14.5189C39.0082 13.8508 38.769 13.2076 38.3462 12.69V10.3185C38.3462 5.67714 34.5702 1.90125 29.9292 1.90125C25.2878 1.90125 21.5119 5.67725 21.5119 10.3185V12.7519C21.0895 13.2567 20.8531 13.8654 20.8323 14.5114C19.8723 13.6902 18.739 13.0966 17.5173 12.7752C17.0471 12.6514 16.567 12.9318 16.4434 13.4013C16.3197 13.8708 16.6 14.3516 17.0695 14.4752C19.989 15.244 22.028 17.892 22.028 20.9145V22.229C21.9733 22.2186 21.9185 22.2087 21.8635 22.1995C21.8516 21.9514 21.7887 21.7999 21.6535 21.6053C21.4285 21.282 21.0244 20.8793 19.7248 19.4824C19.5015 19.2416 19.2002 19.0877 18.8742 19.0479C18.5482 19.0082 18.2187 19.0852 17.9441 19.2654C15.7181 20.7194 13.0138 21.4605 10.5041 21.3132C9.68658 21.2653 9.176 21.6244 8.95838 22.2131C8.93893 22.2162 8.72154 22.2601 8.70947 22.263V20.9145C8.70947 18.0002 10.6569 15.3784 13.4451 14.5385C13.5571 14.5064 13.6615 14.4524 13.7524 14.3796C13.8433 14.3069 13.9188 14.2168 13.9746 14.1146C14.0304 14.0123 14.0653 13.9001 14.0773 13.7843C14.0893 13.6685 14.0782 13.5514 14.0447 13.4399C14.0111 13.3284 13.9557 13.2247 13.8817 13.1348C13.8077 13.0449 13.7165 12.9706 13.6136 12.9162C13.5106 12.8618 13.3979 12.8285 13.2819 12.818C13.166 12.8075 13.0491 12.8202 12.9381 12.8553C11.2424 13.366 9.7181 14.4294 8.64643 15.8492C7.53748 17.3181 6.95143 19.0696 6.95143 20.9146V23.3482C6.5087 23.8771 6.26928 24.52 6.26928 25.2008C6.26928 26.7055 7.37788 28.0177 8.95732 28.2134C9.21607 29.7794 10.0657 31.2811 11.4065 32.3022V33.8L3.6437 36.8096C3.63818 36.8117 3.63267 36.8139 3.62718 36.8161C3.47882 36.877 0 38.3535 0 42.4094V56.1928C0 57.2439 0.854998 58.0988 1.90605 58.0988H28.9729C29.3373 58.0987 29.694 57.9935 30.0001 57.7958C30.3061 57.9936 30.6628 58.0988 31.0272 58.0988H58.0942C59.1451 58.0988 60.0001 57.2439 60.0001 56.1928V50.3202C60.0001 50.0871 59.9075 49.8636 59.7426 49.6987C59.5778 49.5339 59.3542 49.4413 59.1211 49.4413ZM8.87131 26.3974C8.35604 26.2103 8.02686 25.7337 8.02686 25.2005C8.02686 24.6834 8.40186 24.2585 8.87131 24.0568V26.3974ZM49.4974 36.038L47.7722 39.4957L45.8287 38.1153L47.9858 35.4527L49.4974 36.038ZM44.5581 36.8909L42.285 34.0851V33.2419C43.0239 33.4974 43.8198 33.6153 44.569 33.6155C45.3436 33.6154 46.1284 33.4683 46.8269 33.2055V34.0905L44.5581 36.8909ZM45.5901 40.1022L45.2667 40.5889H43.8498L43.5265 40.1022L44.5583 39.3694L45.5901 40.1022ZM29.9977 26.2946L27.7246 23.4888V22.6456C28.4606 22.9 29.2557 23.019 30.0086 23.0192C30.7818 23.0192 31.5665 22.8726 32.2665 22.6093V23.4942L29.9977 26.2946ZM31.0295 29.5061L30.7062 29.9928H29.2893L28.966 29.5061L29.9978 28.7733L31.0295 29.5061ZM23.0763 17.5329C23.22 17.572 23.3676 17.5986 23.5175 17.6171C23.7762 19.1831 24.6258 20.6848 25.9667 21.7059V23.2037L24.1736 23.8987C24.0694 23.6796 23.9391 23.474 23.7855 23.2862V20.9146C23.7861 19.7504 23.5446 18.5988 23.0763 17.5329ZM34.6682 16.6022C34.6682 19.1748 32.5696 21.2611 30.0092 21.2611C27.1204 21.2611 25.1899 19.0222 25.1899 16.6022V12.4851C27.9652 12.5962 30.8484 11.7737 33.2056 10.3065C33.9981 11.1563 34.4697 11.6501 34.6683 11.8793L34.6682 16.6022ZM36.3453 17.6165C36.4934 17.5988 36.64 17.5705 36.7841 17.532C36.3139 18.5977 36.0714 19.7498 36.0721 20.9146V23.348C35.9388 23.5068 35.8223 23.6789 35.7245 23.8617L34.0244 23.2033V21.6025C35.2374 20.6265 36.0895 19.2199 36.3453 17.6165ZM26.5669 24.8578L28.7246 27.521L27.2532 28.566L27.251 28.5678L26.784 28.8996L25.0586 25.4419L26.5669 24.8578ZM32.0206 26.5903L33.4253 24.8564L34.9369 25.4417L33.2118 28.8996L32.7438 28.5672L32.7424 28.566L31.2683 27.519L32.0206 26.5903ZM32.4636 30.5244L32.5577 30.5912C32.7195 30.7063 32.9044 30.7849 33.0996 30.8217C33.2947 30.8585 33.4955 30.8525 33.6882 30.8042C33.8809 30.7561 34.0609 30.6668 34.2157 30.5425C34.3706 30.4181 34.4967 30.2617 34.5854 30.084L36.0687 27.1109C36.5784 27.739 37.3155 28.1211 38.0746 28.2159C38.3427 29.8963 39.2511 31.3305 40.5272 32.3022V33.7999L33.0549 36.6968L32.1022 31.0683L32.4636 30.5244ZM41.1273 35.454L43.285 38.1172L41.3444 39.4957L39.619 36.0381L41.1273 35.454ZM49.2285 27.1985C49.2287 29.7083 47.1905 31.8574 44.5696 31.8574C41.5823 31.8574 39.7503 29.5176 39.7503 27.1985V23.0814C42.5058 23.1915 45.3927 22.3798 47.7659 20.9028C48.5584 21.7527 49.03 22.2464 49.2286 22.4756L49.2285 27.1985ZM51.8312 25.2007C51.8312 25.7348 51.501 26.2105 50.9868 26.3974V24.0064C51.5183 24.2 51.8312 24.6857 51.8312 25.2007ZM37.83 20.9145C37.83 17.2426 40.8175 14.2552 44.4893 14.2552C48.1613 14.2552 51.1485 17.2427 51.1485 20.9145V22.229C51.0938 22.2184 51.0389 22.2086 50.984 22.1995C50.972 21.9512 50.9088 21.7993 50.774 21.6053C50.543 21.2736 50.1434 20.8777 48.8453 19.4824C48.392 18.9958 47.6446 18.8863 47.0645 19.2654C44.8989 20.68 42.1628 21.4791 39.5593 21.31C38.8279 21.2621 38.2981 21.6202 38.0788 22.2132C38.0593 22.2164 37.8422 22.2602 37.8299 22.2631L37.83 20.9145ZM37.9923 24.0569V26.3962C37.4755 26.2099 37.1479 25.732 37.1479 25.2005C37.1478 24.6834 37.5225 24.2587 37.9923 24.0569ZM37.2706 14.6045C37.2706 14.9745 37.1104 15.3246 36.8311 15.5647C36.7116 15.6674 36.5743 15.7475 36.4261 15.8011V13.4101C36.9517 13.6009 37.2706 14.084 37.2706 14.6045ZM29.9288 3.65905C33.6008 3.65905 36.5881 6.64639 36.5881 10.3183V11.6328C36.5334 11.6223 36.4785 11.6124 36.4236 11.6033C36.4105 11.3341 36.333 11.1686 36.1747 10.9545C35.9393 10.636 35.5055 10.1981 34.2849 8.88608C34.0615 8.64536 33.7602 8.4915 33.4342 8.45177C33.1082 8.41205 32.7787 8.48902 32.5041 8.66904C30.2171 10.1632 27.4427 10.8903 24.928 10.7102C24.3127 10.6637 23.7335 11.0354 23.5185 11.6168C23.499 11.6199 23.2818 11.6638 23.2696 11.6667V10.3185C23.2696 6.64639 26.257 3.65905 29.9288 3.65905ZM23.4317 13.4606V15.8012C22.9164 15.6141 22.5873 15.1375 22.5873 14.6043C22.5873 14.0901 22.9593 13.6637 23.4317 13.4606ZM21.8656 24.0064C22.3573 24.1853 22.6732 24.6144 22.7044 25.1242C22.7438 25.6912 22.3954 26.2039 21.8656 26.3963V24.0064ZM21.7842 28.2156C22.6132 28.1119 23.3741 27.6751 23.873 27.003L25.4103 30.0838C25.4989 30.2616 25.6251 30.4182 25.7799 30.5425C25.9348 30.6669 26.1148 30.7561 26.3075 30.8042C26.6934 30.9006 27.1062 30.8268 27.438 30.5912L27.5321 30.5244L27.8934 31.0682L26.941 36.6952L19.464 33.7994V32.1993C20.7089 31.1956 21.5343 29.7774 21.7842 28.2156ZM15.4371 36.8909L13.164 34.0851V33.2419C13.8999 33.4963 14.6952 33.6153 15.4481 33.6154C16.2189 33.6138 16.9837 33.475 17.7058 33.2055V34.0905L15.4371 36.8909ZM16.469 40.1022L16.1457 40.5889H14.7288L14.4055 40.1022L15.4373 39.3694L16.469 40.1022ZM18.8647 35.4527L20.3764 36.0381L18.6512 39.4957L18.1831 39.1634L18.1817 39.1622L16.7076 38.1153L18.8647 35.4527ZM10.6292 27.1985V23.0814C13.4193 23.1929 16.3044 22.3594 18.6448 20.9028C19.4299 21.7447 19.9087 22.2461 20.1076 22.4756V27.1985C20.1076 29.7547 18.0234 31.8574 15.4486 31.8574C12.5818 31.8574 10.6292 29.644 10.6292 27.1985ZM12.0064 35.454L14.1641 38.1172L12.6927 39.1622L12.6904 39.164L12.2235 39.4957L10.4981 36.0381L12.0064 35.454ZM7.00346 56.3411V43.4998C7.00346 43.0144 6.61006 42.6209 6.12456 42.6209C5.63905 42.6209 5.24565 43.0144 5.24565 43.4998V56.3409H1.90605C1.8668 56.3409 1.82916 56.3253 1.80139 56.2976C1.77362 56.2698 1.75799 56.2322 1.75793 56.1929V42.4094C1.75793 39.5864 4.13648 38.5104 4.29046 38.4439L8.85151 36.6756L10.8497 40.68C10.9382 40.8578 11.0645 41.0144 11.2193 41.1387C11.3742 41.2631 11.5542 41.3523 11.747 41.4004C12.1329 41.4968 12.5457 41.423 12.8775 41.1873L12.9716 41.1205L13.3329 41.6644L11.3694 53.2655C11.3679 53.2742 11.3665 53.283 11.3653 53.2917C11.3088 53.7008 11.436 54.1224 11.7058 54.4197L13.4523 56.3409L7.00346 56.3411ZM13.1335 53.3766L15.0002 42.3468H15.8743L17.7411 53.3766L15.4373 55.911L13.1335 53.3766ZM29.1209 56.1928C29.1209 56.2745 29.0546 56.3409 28.9729 56.3409H25.6335V43.4998C25.6335 43.2667 25.5409 43.0431 25.3761 42.8783C25.2113 42.7135 24.9877 42.6209 24.7546 42.6209C24.5215 42.6209 24.298 42.7135 24.1332 42.8783C23.9683 43.0431 23.8757 43.2667 23.8757 43.4998V56.3409H17.4222L19.1689 54.4194C19.4387 54.1226 19.5658 53.7011 19.5092 53.2917C19.508 53.283 19.5066 53.2742 19.5051 53.2655L17.5416 41.6644L17.9029 41.1205L17.997 41.1873C18.159 41.3023 18.3438 41.3809 18.539 41.4177C18.7342 41.4544 18.935 41.4485 19.1276 41.4003C19.3203 41.3522 19.5002 41.2628 19.6551 41.1385C19.81 41.0142 19.9361 40.8578 20.0248 40.6802L22.0228 36.6758L26.5866 38.4433C27.9169 39.022 29.1208 40.5143 29.1208 42.4094L29.1209 56.1928ZM29.9999 39.2155C29.6358 38.6289 29.1512 38.0861 28.5669 37.6229L29.5607 31.7507H30.4348L31.4292 37.6259C30.8293 38.1023 30.3509 38.65 29.9999 39.2155ZM36.1244 56.3411V43.4998C36.1244 43.0144 35.731 42.6209 35.2455 42.6209C34.76 42.6209 34.3666 43.0144 34.3666 43.4998V56.3409H31.0271C30.9878 56.3409 30.9502 56.3253 30.9224 56.2976C30.8947 56.2698 30.879 56.2322 30.879 56.1929V42.4094C30.879 41.3645 31.2066 40.4022 31.9046 39.5937C32.3699 39.0599 32.9872 38.6277 33.4116 38.4439L37.9727 36.6755L39.9708 40.68C40.0594 40.8578 40.1856 41.0144 40.3404 41.1387C40.4953 41.263 40.6753 41.3523 40.868 41.4004C41.2539 41.4968 41.6668 41.423 41.9985 41.1873L42.0926 41.1205L42.4539 41.6644L40.4904 53.2655C40.4889 53.2742 40.4876 53.283 40.4863 53.2917C40.4298 53.7008 40.557 54.1224 40.8269 54.4197L42.5733 56.3409L36.1244 56.3411ZM42.2544 53.3767L44.1212 42.3469H44.9953L46.8621 53.3767L44.5582 55.9111L42.2544 53.3767Z" fill="white"/>
</g>
<defs>
<clipPath id="clip0_21_75">
<rect width="60" height="60" fill="white"/>
</clipPath>
</defs>
</svg>
