<svg width="60" height="58" viewBox="0 0 60 58" fill="none" xmlns="http://www.w3.org/2000/svg">
<path d="M13.0789 27.2338H20.8686C21.5281 27.2328 22.1603 26.9703 22.6266 26.5038C23.0928 26.0374 23.3551 25.4051 23.3558 24.7456V16.1328C23.3551 15.4734 23.0928 14.8412 22.6265 14.3749C22.1602 13.9087 21.528 13.6464 20.8686 13.6456H13.078C12.4186 13.6464 11.7864 13.9087 11.3201 14.3749C10.8538 14.8412 10.5916 15.4734 10.5908 16.1328V24.7456C10.5916 25.4051 10.8538 26.0374 11.3201 26.5038C11.7863 26.9703 12.4185 27.2328 13.078 27.2338H13.0789ZM12.4668 16.1328C12.4668 15.8009 12.7471 15.5206 13.0789 15.5206H20.8686C21.2005 15.5206 21.4808 15.8009 21.4808 16.1328V24.7456C21.4789 24.9075 21.4138 25.0622 21.2994 25.1767C21.1851 25.2912 21.0305 25.3566 20.8686 25.3588H13.078C12.9162 25.3566 12.7616 25.2912 12.6472 25.1767C12.5329 25.0622 12.4678 24.9075 12.4658 24.7456L12.4668 16.1328ZM26.5733 15.95H37.0105C37.2591 15.95 37.4976 15.8512 37.6734 15.6754C37.8492 15.4996 37.948 15.2611 37.948 15.0125C37.948 14.7639 37.8492 14.5254 37.6734 14.3496C37.4976 14.1738 37.2591 14.075 37.0105 14.075H26.5733C26.3247 14.075 26.0862 14.1738 25.9104 14.3496C25.7346 14.5254 25.6358 14.7639 25.6358 15.0125C25.6358 15.2611 25.7346 15.4996 25.9104 15.6754C26.0862 15.8512 26.3247 15.95 26.5733 15.95ZM26.5733 21.5919H37.0105C37.2591 21.5919 37.4976 21.4931 37.6734 21.3173C37.8492 21.1415 37.948 20.903 37.948 20.6544C37.948 20.4057 37.8492 20.1673 37.6734 19.9915C37.4976 19.8157 37.2591 19.7169 37.0105 19.7169H26.5733C26.3247 19.7169 26.0862 19.8157 25.9104 19.9915C25.7346 20.1673 25.6358 20.4057 25.6358 20.6544C25.6358 20.903 25.7346 21.1415 25.9104 21.3173C26.0862 21.4931 26.3247 21.5919 26.5733 21.5919Z" fill="white"/>
<path d="M58.7438 52.3653L53.2031 45.2778C53.0818 45.1216 52.9306 44.991 52.7584 44.8936C52.5862 44.7963 52.3964 44.7341 52.2 44.7106C52.0035 44.6856 51.8041 44.6999 51.6132 44.7527C51.4223 44.8055 51.2438 44.8957 51.0881 45.0181L50.2762 45.6537L49.1822 44.2569C51.3457 42.0474 52.5993 39.1052 52.6941 36.0144C52.7513 34.3836 52.4844 32.7577 51.9087 31.2308C51.3331 29.7039 50.4602 28.3065 49.3406 27.1194C47.5164 25.1762 45.1122 23.8758 42.4875 23.4125V8.26811C42.4868 7.51571 42.1875 6.79433 41.6555 6.2623C41.1235 5.73027 40.4021 5.43105 39.6497 5.4303H37.6641V3.61436C37.6633 2.86196 37.3641 2.14058 36.8321 1.60855C36.3 1.07652 35.5787 0.777295 34.8262 0.77655H3.77625C3.02368 0.777047 2.30206 1.07616 1.76983 1.60822C1.2376 2.14028 0.938245 2.86179 0.9375 3.61436V43.9006C0.938245 44.653 1.23747 45.3744 1.7695 45.9064C2.30153 46.4385 3.02291 46.7377 3.77531 46.7384H5.76188V48.5572C5.76336 49.3091 6.06291 50.0297 6.59487 50.5612C7.12682 51.0926 7.84777 51.3914 8.59969 51.3922H39.6497C40.4016 51.3914 41.1226 51.0926 41.6545 50.5612C42.1865 50.0297 42.486 49.3091 42.4875 48.5572V47.8362C44.4119 47.4917 46.2264 46.6934 47.7806 45.5075L48.7997 46.8087L47.9841 47.4462C47.6701 47.6923 47.4665 48.0529 47.418 48.4488C47.3695 48.8448 47.48 49.2438 47.7253 49.5584L53.2697 56.6459C53.5154 56.9601 53.8759 57.1638 54.2718 57.2123C54.6676 57.2608 55.0666 57.1502 55.3809 56.9047L58.4841 54.4765C58.7981 54.2308 59.0019 53.8704 59.0505 53.4746C59.0992 53.0788 58.9889 52.6799 58.7438 52.3653ZM3.77531 44.8625C3.24469 44.8625 2.8125 44.4312 2.8125 43.9006V3.61436C2.8125 3.08374 3.24375 2.65155 3.77531 2.65155H34.8253C35.3569 2.65155 35.7891 3.0828 35.7891 3.61436V5.43124H8.59969C7.84728 5.43198 7.12591 5.7312 6.59387 6.26324C6.06184 6.79527 5.76262 7.51664 5.76188 8.26905V44.8644H3.77531V44.8625ZM40.6125 48.5562C40.6125 49.085 40.1812 49.5162 39.6497 49.5162H8.59969C8.06906 49.5162 7.63688 49.085 7.63688 48.5562V8.26811C7.63688 7.73749 8.06813 7.3053 8.59969 7.3053H39.6497C40.1803 7.3053 40.6125 7.73655 40.6125 8.26811V23.209C38.011 23.1404 35.4538 23.8925 33.3037 25.3587H26.5725C26.3239 25.3587 26.0854 25.4575 25.9096 25.6333C25.7338 25.8091 25.635 26.0476 25.635 26.2962C25.635 26.5449 25.7338 26.7833 25.9096 26.9592C26.0854 27.135 26.3239 27.2337 26.5725 27.2337H31.125C30.1126 28.3349 29.3095 29.6114 28.755 31.0006H11.5294C11.2807 31.0006 11.0423 31.0994 10.8665 31.2752C10.6906 31.451 10.5919 31.6895 10.5919 31.9381C10.5919 32.1868 10.6906 32.4252 10.8665 32.601C11.0423 32.7768 11.2807 32.8756 11.5294 32.8756H28.1812C27.9058 34.111 27.8195 35.3811 27.9253 36.6425H11.5284C11.2798 36.6425 11.0413 36.7413 10.8655 36.9171C10.6897 37.0929 10.5909 37.3313 10.5909 37.58C10.5909 37.8286 10.6897 38.0671 10.8655 38.2429C11.0413 38.4187 11.2798 38.5175 11.5284 38.5175H28.2216C28.5383 39.8524 29.0754 41.1251 29.8106 42.2834H11.5294C11.2807 42.2834 11.0423 42.3822 10.8665 42.558C10.6906 42.7338 10.5919 42.9723 10.5919 43.2209C10.5919 43.4696 10.6906 43.708 10.8665 43.8838C11.0423 44.0597 11.2807 44.1584 11.5294 44.1584H31.2694C32.3804 45.3377 33.7129 46.2867 35.1907 46.951C36.6685 47.6153 38.2627 47.9821 39.8822 48.0303C40.1287 48.0369 40.3659 48.0275 40.6134 48.0209V48.5572L40.6125 48.5562ZM39.9431 46.1544C38.5583 46.1137 37.1954 45.7988 35.9331 45.2278C34.6708 44.6569 33.5343 43.8412 32.5894 42.8281C28.6116 38.5869 28.8263 31.9006 33.0675 27.9228C34.0752 26.9721 35.2616 26.2309 36.5579 25.742C37.8541 25.2531 39.2345 25.0263 40.6191 25.0747C42.0039 25.1153 43.3668 25.4303 44.6291 26.0012C45.8914 26.5722 47.0279 27.3878 47.9728 28.4009C51.9506 32.6422 51.7359 39.3294 47.4947 43.3072C46.4869 44.2578 45.3005 44.9989 44.0043 45.4876C42.708 45.9764 41.3276 46.203 39.9431 46.1544ZM54.5175 55.1975L49.4316 48.694L51.9525 46.7215L57.0384 53.2269L54.5175 55.1975Z" fill="white"/>
<path d="M46.4213 29.8569C43.2451 26.4725 37.9088 26.3028 34.5254 29.4763C31.1391 32.6497 30.9676 37.9869 34.141 41.375C34.9281 42.2145 35.8793 42.8832 36.9357 43.3396C37.992 43.796 39.1309 44.0304 40.2816 44.0281C42.4208 44.0315 44.4806 43.2183 46.0407 41.7547C49.4241 38.5803 49.5938 33.2413 46.4213 29.8569ZM44.7582 40.3869C42.1257 42.8563 37.9773 42.7222 35.5098 40.0925C33.0423 37.4591 33.1754 33.3106 35.8069 30.8441C37.0176 29.7062 38.6183 29.0741 40.2798 29.0769C42.0254 29.0769 43.7673 29.7697 45.0535 31.1394C47.5191 33.7709 47.3869 37.9203 44.7582 40.3869Z" fill="white"/>
<path d="M45.2811 34.4975C44.9972 33.2058 44.2127 32.0794 43.0996 31.3651C41.9864 30.6509 40.6355 30.4073 39.343 30.6875C39.2217 30.7127 39.1065 30.7617 39.0043 30.8316C38.902 30.9015 38.8146 30.9911 38.7471 31.095C38.6796 31.1989 38.6334 31.3152 38.6112 31.4371C38.5889 31.559 38.5911 31.6841 38.6175 31.8052C38.6439 31.9262 38.694 32.0409 38.765 32.1424C38.8359 32.244 38.9263 32.3305 39.0309 32.3969C39.1356 32.4633 39.2523 32.5084 39.3744 32.5294C39.4965 32.5504 39.6216 32.547 39.7424 32.5194C41.4299 32.1538 43.0846 33.2206 43.4511 34.8978C43.4774 35.018 43.5271 35.1319 43.5974 35.2329C43.6677 35.3339 43.7572 35.4201 43.8608 35.4865C43.9644 35.553 44.0801 35.5983 44.2012 35.62C44.3223 35.6418 44.4465 35.6394 44.5668 35.6131C44.687 35.5869 44.8008 35.5371 44.9019 35.4669C45.0029 35.3966 45.089 35.3071 45.1555 35.2035C45.2219 35.0999 45.2673 34.9842 45.289 34.8631C45.3107 34.742 45.3074 34.6177 45.2811 34.4975Z" fill="white"/>
</svg>
