<svg width="60" height="54" viewBox="0 0 60 54" fill="none" xmlns="http://www.w3.org/2000/svg">
<path d="M48.1838 34.0831V13.6607M8.73541 13.6727V30.1935M39.0765 13.4877H50.4293M6.48975 13.4877H17.7685M17.9554 1.54888V31.3172M38.9637 37.1947V1.53271M41.4666 1.28931L15.4526 1.31603" stroke="#75B4B6" stroke-width="2" stroke-miterlimit="10" stroke-linecap="round" stroke-linejoin="round"/>
<path d="M32.1931 7.56482V10.4078M24.7263 7.56482V10.4078M32.1931 15.8209V18.6639M24.7263 15.8209V18.6639M32.0755 24.1064V26.9494M24.6086 24.1064V26.9494" stroke="#75B4B6" stroke-width="2" stroke-miterlimit="10" stroke-linecap="round" stroke-linejoin="round"/>
<path d="M38.7577 40.1534L52.8284 31.1168C54.6383 29.9544 57.0478 30.4794 58.21 32.2893C59.3724 34.0991 58.8474 36.5086 57.0376 37.6709L37.2466 50.381C34.6813 52.0285 31.5717 52.6029 28.5871 51.9805L12.7344 48.6748" stroke="#75B4B6" stroke-width="2" stroke-miterlimit="10" stroke-linecap="round" stroke-linejoin="round"/>
<path d="M21.0667 39.2919L34.3502 42.1859C36.4519 42.6437 38.5268 41.3112 38.9846 39.2095C39.4425 37.1079 38.11 35.033 36.0083 34.5751L21.7559 31.4701C19.1168 30.8952 16.3574 31.3921 14.0846 32.8516L12.7684 33.7192M1.17188 51.5388V31.5189C1.17188 30.8716 1.69652 30.347 2.34375 30.347H11.3993C12.0465 30.347 12.5712 30.8716 12.5712 31.5189V51.5389C12.5712 52.1862 12.0465 52.7108 11.3993 52.7108H2.34375C1.69652 52.7107 1.17188 52.186 1.17188 51.5388Z" stroke="#75B4B6" stroke-width="2" stroke-miterlimit="10" stroke-linecap="round" stroke-linejoin="round"/>
</svg>
