<?xml version="1.0" encoding="UTF-8"?>
<svg id="Layer_2" xmlns="http://www.w3.org/2000/svg" version="1.1" viewBox="0 0 85.6 54">
  <!-- Generator: Adobe Illustrator 29.2.1, SVG Export Plug-In . SVG Version: 2.1.0 Build 116)  -->
  <defs>
    <style>
      .st0 {
        fill: #75b4b6;
        stroke: #75b4b6;
        stroke-miterlimit: 10;
        stroke-width: 2px;
      }
    </style>
  </defs>
  <path class="st0" d="M24,15.6c.2-.8.4-1.6.6-2.4.2-.9.5-1.7.8-2.6.5-1.4,1.3-2.5,2.4-3.4,3.3-2.7,7-4.5,11.2-5.2,2.6-.4,5.2-.1,7.6,1.2.4.3.8.5,1.2.9.3.2.5.3.9.2,2-.4,4-.5,6,0,1.9.4,3.1,1.8,3.9,3.5.8,1.7,1.2,3.5,1.4,5.4.5,3.5.4,7,.5,10.4,0,.2,0,.3,0,.5.9-.3,1.8-.5,2.7-.7,6.3-1.4,12.5-.9,18.4,1.6.8.3,1.3.8,1.4,1.7.1,1-.4,1.7-1.4,2.1-1.2.4-2.4.7-3.5,1-5.3,1.4-10.4,3.2-15.5,5.2-5.7,2.2-11.3,4.7-16.6,7.5-3.6,1.9-7.1,4.1-10.8,5.9-1.6.8-3.1,1.5-4.7,2.1-2.4,1-4.9,1.4-7.4,1.4-3.8,0-7.5-.5-11-2-4.2-1.8-7-4.9-8.5-9.2-1.1-3.1-1.4-6.4-1-9.6.4-4.1,1.6-7.9,4.1-11.3,2.4-3.3,5.7-5.4,9.7-6,2.6-.4,5.1,0,7.4,1.5,0,0,.1,0,.2.1ZM47.2,4.7c-.2-.1-.3-.2-.4-.3-2.1-1.4-4.3-1.8-6.8-1.6-4.4.4-8.3,2.2-11.6,5-.9.8-1.7,1.7-2.1,2.8-.4,1-.7,2-1,3.1-.7,2.8-1.3,5.6-1.8,8.5-.4,2-.7,4-1,6,0,.3,0,.5.3.8,1,.7,2,1.3,3.1,1.8,3.1,1.4,6.3,1.9,9.6,2,3.2.1,6.3-.1,9.4-.7.6-.1,1.2,0,1.8-.5,1.4-1.1,2.8-2,4.3-3,2.6-1.6,5.4-3,8.4-4,.3-.1.3-.3.3-.6,0-1.3,0-2.7,0-4,0-2.6-.2-5.2-.6-7.7-.3-1.8-.7-3.6-1.7-5.1-.7-1.1-1.7-1.8-3-2.1-1.5-.3-3-.3-4.5,0-2.8.4-5.4,1.5-7.9,2.7-.8.4-1.5.8-2.3,1.3-.3.2-.5.2-.7-.1-.2-.3,0-.5.2-.6,0,0,0,0,.1,0,2.2-1.3,4.6-2.5,7-3.2.3,0,.6,0,.9-.3h0ZM40.6,37.3c-.1-.2-.2-.1-.3,0-3.6.5-7.2.3-10.7-.6-2.5-.6-4.9-1.5-7.1-3.1-1.2-.9-1.6-2-1.3-3.4.2-1.1.6-2.2.7-3.3.5-3.3,1.1-6.6,1.8-9.9,0-.2,0-.4-.2-.5-2.1-1.4-4.5-2-7-1.6-4.3.7-7.6,3-9.8,6.7-3.2,5.4-4.1,11.2-2.8,17.3.7,3.1,2.1,5.9,4.5,8,2,1.8,4.5,2.9,7.1,3.6,3.2.8,6.4,1,9.7.8.6,0,1.1-.2,1.5-.5,2.1-1.3,4-2.8,5.7-4.5,2.3-2.3,4.4-4.8,6.5-7.2.5-.6,1-1.1,1.5-1.6h0ZM29.2,50.1s0,0,0,0c.2,0,.3-.1.5-.2,3.9-1.5,7.5-3.5,11.2-5.5,2.2-1.2,4.4-2.5,6.6-3.7,4.9-2.5,9.9-4.7,15-6.7,4.7-1.8,9.5-3.5,14.4-4.9,1.5-.4,3.1-.7,4.6-1.3.5-.2.8-.5.8-1,0-.5-.2-.9-.7-1.1-3.3-1.4-6.8-2.2-10.4-2.3-3.3-.1-6.5.3-9.7,1.3-6,1.7-11.2,4.8-15.9,8.8-2.8,2.3-5.2,5-7.5,7.7-2.1,2.4-4.2,4.9-6.7,7-.7.6-1.4,1.2-2.1,1.7h0Z"/>
</svg>